name 900006_30.mot
datacolumns 153
datarows 4
range 0.10000000 0.12500000
endheader

                time	           pelvis_tx	           pelvis_ty	           pelvis_tz	         pelvis_tilt	         pelvis_list	     pelvis_rotation	       hip_flexion_r	     hip_adduction_r	      hip_rotation_r	        knee_angle_r	       ankle_angle_r	    subtalar_angle_r	         mtp_angle_r	       hip_flexion_l	     hip_adduction_l	      hip_rotation_l	        knee_angle_l	       ankle_angle_l	    subtalar_angle_l	         mtp_angle_l	    lumbar_extension	      lumbar_bending	     lumbar_rotation	     ground_force_vx	     ground_force_vy	     ground_force_vz	     ground_force_px	     ground_force_py	     ground_force_pz	     ground_force_vx	     ground_force_vy	     ground_force_vz	     ground_force_px	     ground_force_py	     ground_force_pz	     ground_torque_x	     ground_torque_y	     ground_torque_z	     ground_torque_x	     ground_torque_y	     ground_torque_z	    ground_marker_px	    ground_marker_py	    ground_marker_pz	    ground_marker_px	    ground_marker_py	    ground_marker_pz	    ground_marker_px	    ground_marker_py	    ground_marker_pz	    ground_marker_px	    ground_marker_py	    ground_marker_pz	    ground_marker_px	    ground_marker_py	    ground_marker_pz	    ground_marker_px	    ground_marker_py	    ground_marker_pz	    ground_marker_px	    ground_marker_py	    ground_marker_pz	    ground_marker_px	    ground_marker_py	    ground_marker_pz	    ground_marker_px	    ground_marker_py	    ground_marker_pz	    ground_marker_px	    ground_marker_py	    ground_marker_pz	    ground_marker_px	    ground_marker_py	    ground_marker_pz	    ground_marker_px	    ground_marker_py	    ground_marker_pz	    ground_marker_px	    ground_marker_py	    ground_marker_pz	    ground_marker_px	    ground_marker_py	    ground_marker_pz	    ground_marker_px	    ground_marker_py	    ground_marker_pz	    ground_marker_px	    ground_marker_py	    ground_marker_pz	    ground_marker_px	    ground_marker_py	    ground_marker_pz	    ground_marker_px	    ground_marker_py	    ground_marker_pz	    ground_marker_px	    ground_marker_py	    ground_marker_pz	    ground_marker_px	    ground_marker_py	    ground_marker_pz	    ground_marker_px	    ground_marker_py	    ground_marker_pz	    ground_marker_px	    ground_marker_py	    ground_marker_pz	    ground_marker_px	    ground_marker_py	    ground_marker_pz	    ground_marker_px	    ground_marker_py	    ground_marker_pz	    ground_marker_px	    ground_marker_py	    ground_marker_pz	    ground_marker_px	    ground_marker_py	    ground_marker_pz	    ground_marker_px	    ground_marker_py	    ground_marker_pz	    ground_marker_px	    ground_marker_py	    ground_marker_pz	    ground_marker_px	    ground_marker_py	    ground_marker_pz	    ground_marker_px	    ground_marker_py	    ground_marker_pz	    ground_marker_px	    ground_marker_py	    ground_marker_pz	    ground_marker_px	    ground_marker_py	    ground_marker_pz	    ground_marker_px	    ground_marker_py	    ground_marker_pz	    ground_marker_px	    ground_marker_py	    ground_marker_pz	    ground_marker_px	    ground_marker_py	    ground_marker_pz	    ground_marker_px	    ground_marker_py	    ground_marker_pz	    ground_marker_px	    ground_marker_py	    ground_marker_pz	
          0.10000000	         -0.07081200	          0.82336271	         -0.25237682	          5.42844439	         -1.59296739	         -1.57027626	         20.37841797	          0.18467499	         -6.92836237	        -20.79712486	         -2.03491616	          0.00000000	          0.00000000	        -15.32586098	         -2.61044979	         -3.87855530	        -36.39959717	         -1.26378560	          0.00000000	          0.00000000	         -8.73293209	          5.28239202	         -4.91437197	        -55.69497033	        384.72199611	        -12.75205586	          0.03921802	          0.00000000	         -0.17078082	          0.00000000	          0.00000000	          0.00000000	          0.53392590	          0.00000000	         -0.26744193	          0.00000000	          0.26788403	          0.00000000	          0.00000000	          0.00000000	          0.00000000	         -0.10049334	          0.74898255	         -0.25907654	         -0.10969500	          0.74715418	         -0.20242038	         -0.09129169	          0.75081086	         -0.31573266	         -0.02104034	          0.41082606	         -0.17305999	         -0.20960127	          0.41261533	         -0.32611457	          0.04456576	          0.06463375	         -0.17249088	         -0.45494381	          0.14558144	         -0.33082086	         -0.07081200	          0.82336271	         -0.25237682	         -0.07342567	          0.82670462	         -0.14375077	         -0.06819834	          0.82002074	         -0.36100289	         -0.24878249	          0.84365314	         -0.22181994	         -0.24476539	          0.84382647	         -0.27535006	          0.00475351	          0.42101622	         -0.11310201	         -0.20072272	          0.39245304	         -0.38420874	          0.00039062	          0.41473177	         -0.23525964	         -0.18864852	          0.39891368	         -0.25453591	          0.03519596	          0.06344081	         -0.13619991	         -0.45951167	          0.15072298	         -0.36666706	          0.05368271	          0.05880516	         -0.20472361	         -0.45978206	          0.15110675	         -0.29726994	         -0.18976024	          1.24276638	         -0.23143770	         -0.08720655	          1.16889036	         -0.17636766	         -0.07510960	          1.17491829	         -0.28160506	         -0.08362672	          1.17186165	         -0.23237580	         -0.07607877	          1.07022882	         -0.23986611	          0.06827913	          0.59247530	         -0.13675967	         -0.05554272	          0.52430749	         -0.39502394	          0.00400123	          0.60837442	         -0.10670897	         -0.06590500	          0.57140005	         -0.32715455	          0.01388322	          0.55108458	         -0.11142872	         -0.08719102	          0.51453429	         -0.31811562	          0.14616022	          0.19803898	         -0.13440199	         -0.38648137	          0.22418879	         -0.45499939	          0.07650528	          0.17326626	         -0.16169955	         -0.39593711	          0.21842691	         -0.37695777	          0.12638970	          0.05233328	         -0.15297167	         -0.40744480	          0.06213538	         -0.33449543	
          0.10833333	         -0.05964101	          0.82584989	         -0.24967027	          5.44588947	         -1.52121353	         -1.93237150	         19.47204781	          0.46753231	         -6.70835638	        -20.75943375	         -1.69218338	          0.00000000	          0.00000000	        -13.72735596	         -2.88384867	         -3.96677709	        -39.27229309	         -3.32987046	          0.00000000	          0.00000000	         -8.96861839	          5.31708097	         -4.40978479	        -55.04737499	        404.46461221	        -15.92444934	          0.04226062	          0.00000000	         -0.17011932	          0.00000000	          0.00000000	          0.00000000	          0.53659186	          0.00000000	         -0.26715988	          0.00000000	          0.35022461	          0.00000000	          0.00000000	          0.00000000	          0.00000000	         -0.08930151	          0.75162005	         -0.25645545	         -0.09888289	          0.74975687	         -0.19986342	         -0.07972013	          0.75348330	         -0.31304747	         -0.02024348	          0.41401166	         -0.17181163	         -0.18442160	          0.40935725	         -0.32594416	          0.04490327	          0.06440768	         -0.17224079	         -0.43822473	          0.15080428	         -0.33003962	         -0.05964101	          0.82584989	         -0.24967027	         -0.06295875	          0.82913893	         -0.14088894	         -0.05632327	          0.82256085	         -0.35845160	         -0.23748662	          0.84607708	         -0.22183366	         -0.23323692	          0.84606665	         -0.27503514	          0.01030295	          0.42130321	         -0.11193231	         -0.17915495	          0.39187557	         -0.38392630	          0.00092001	          0.41922444	         -0.23764427	         -0.16241452	          0.39563346	         -0.25504214	          0.03580280	          0.06328038	         -0.13587928	         -0.44289228	          0.15619685	         -0.36583602	          0.05353723	          0.05854354	         -0.20457603	         -0.44166797	          0.15584125	         -0.29648849	         -0.17740467	          1.24516165	         -0.22863689	         -0.07480796	          1.17085445	         -0.17447007	         -0.06293388	          1.17701709	         -0.27963760	         -0.07134713	          1.17390633	         -0.23043787	         -0.06412784	          1.07226348	         -0.23811488	          0.07672083	          0.59171373	         -0.13480876	         -0.03683311	          0.52736419	         -0.39400294	          0.01347847	          0.60932755	         -0.10402486	         -0.04884613	          0.57366985	         -0.32651463	          0.02093490	          0.55124462	         -0.11037768	         -0.06673159	          0.51747662	         -0.31813511	          0.14900753	          0.19638905	         -0.13461788	         -0.36857769	          0.22870341	         -0.45419869	          0.07840952	          0.17244075	         -0.16137660	         -0.37666279	          0.22232366	         -0.37641343	          0.12691951	          0.05130658	         -0.15284324	         -0.39524996	          0.06418996	         -0.33366930	
          0.11666667	         -0.04868374	          0.82819426	         -0.24700254	          5.38825846	         -1.42536187	         -2.23662806	         18.59095955	          0.68298233	         -6.57174349	        -20.59580040	         -1.35022461	          0.00000000	          0.00000000	        -11.96255016	         -3.12849641	         -4.21600533	        -41.98230743	         -4.71084404	          0.00000000	          0.00000000	         -8.94385910	          5.64624643	         -4.06061220	        -53.65122392	        420.48848825	        -19.43391160	          0.04537456	          0.00000000	         -0.16927339	          0.00000000	          0.00000000	          0.00000000	          0.53923248	          0.00000000	         -0.26682059	          0.00000000	          0.45442310	          0.00000000	          0.00000000	          0.00000000	          0.00000000	         -0.07846978	          0.75411403	         -0.25387383	         -0.08835721	          0.75220096	         -0.19733614	         -0.06858235	          0.75602710	         -0.31041154	         -0.01855607	          0.41612780	         -0.17050995	         -0.16083269	          0.40669012	         -0.32560197	          0.04515345	          0.06427772	         -0.17203182	         -0.42005008	          0.15526514	         -0.32912245	         -0.04868374	          0.82819426	         -0.24700254	         -0.05260079	          0.83137810	         -0.13802491	         -0.04476668	          0.82501042	         -0.35598019	         -0.22626396	          0.84858304	         -0.22175150	         -0.22192116	          0.84841174	         -0.27455246	          0.01522838	          0.42149737	         -0.11074678	         -0.15751390	          0.39161277	         -0.38348132	          0.00207579	          0.42170021	         -0.23688826	         -0.13731401	          0.39316201	         -0.25524214	          0.03616968	          0.06317961	         -0.13564040	         -0.42484957	          0.16091570	         -0.36486161	          0.05365501	          0.05835357	         -0.20439377	         -0.42237416	          0.16007006	         -0.29557538	         -0.16549765	          1.24779475	         -0.22599702	         -0.06233707	          1.17278552	         -0.17254585	         -0.05052194	          1.17968047	         -0.27744877	         -0.05890678	          1.17622733	         -0.22838069	         -0.05167899	          1.07464218	         -0.23678055	          0.08465166	          0.59078407	         -0.13274910	         -0.01852553	          0.53074181	         -0.39331436	          0.02174955	          0.60988647	         -0.10100523	         -0.03196746	          0.57549775	         -0.32631519	          0.02733880	          0.55111563	         -0.10820409	         -0.04703837	          0.51994586	         -0.31832850	          0.15135776	          0.19483936	         -0.13439031	         -0.34967479	          0.23276573	         -0.45325890	          0.08025967	          0.17177553	         -0.16098659	         -0.35681838	          0.22577554	         -0.37598693	          0.12730542	          0.05048353	         -0.15263282	         -0.38049027	          0.06664792	         -0.33281341	
          0.12500000	         -0.03792706	          0.83034855	         -0.24444383	          5.26067924	         -1.30842638	         -2.47824001	         17.74036789	          0.83029556	         -6.50825596	        -20.31074715	         -1.02866817	          0.00000000	          0.00000000	        -10.06046581	         -3.33149195	         -4.54404449	        -44.47577667	         -5.31424189	          0.00000000	          0.00000000	         -8.89401722	          5.90722704	         -3.73838496	        -51.46310234	        428.67136365	        -22.72665127	          0.04833638	          0.00000000	         -0.16832983	          0.00000000	          0.00000000	          0.00000000	          0.54187708	          0.00000000	         -0.26639471	          0.00000000	          0.56713110	          0.00000000	          0.00000000	          0.00000000	          0.00000000	         -0.06797599	          0.75639617	         -0.25146610	         -0.07810946	          0.75442159	         -0.19497411	         -0.05784252	          0.75837076	         -0.30795810	         -0.01278867	          0.41564837	         -0.16927311	         -0.14019735	          0.40675992	         -0.32493526	          0.04540791	          0.06422755	         -0.17185485	         -0.40051821	          0.15888306	         -0.32806236	         -0.03792706	          0.83034855	         -0.24444383	         -0.04232909	          0.83338022	         -0.13524550	         -0.03352503	          0.82731688	         -0.35364217	         -0.21512413	          0.85109860	         -0.22153619	         -0.21084113	          0.85082024	         -0.27389690	          0.01960189	          0.42164442	         -0.10958400	         -0.13586587	          0.39174044	         -0.38285965	          0.00836301	          0.42028260	         -0.23322266	         -0.11646396	          0.39221865	         -0.25690511	          0.03635606	          0.06313212	         -0.13548023	         -0.40547463	          0.16478230	         -0.36373985	          0.05436028	          0.05815475	         -0.20414184	         -0.40231505	          0.16373055	         -0.29449156	         -0.15364464	          1.25037944	         -0.22352295	         -0.05030621	          1.17480862	         -0.17039558	         -0.03855922	          1.18237793	         -0.27550620	         -0.04691322	          1.17861068	         -0.22633187	         -0.03976329	          1.07707608	         -0.23538254	          0.09211969	          0.58973747	         -0.13066521	         -0.00062602	          0.53444469	         -0.39280343	          0.02808115	          0.60952973	         -0.09904975	         -0.01540073	          0.57782280	         -0.32563487	          0.03339526	          0.55095935	         -0.10560923	         -0.02911220	          0.52187580	         -0.31829777	          0.15322940	          0.19338973	         -0.13363910	         -0.32987496	          0.23629069	         -0.45216781	          0.08217733	          0.17150389	         -0.16078432	         -0.33663464	          0.22891878	         -0.37531319	          0.12758708	          0.04984055	         -0.15237631	         -0.36297047	          0.06942946	         -0.33189631	
